# xmcd
# 
# Track frame offsets:
#     150
#     17735
#     39420
#     59670
#     79897
#     96197
#     116265
#     135217
#     152775
#     169492
#     184655
#     201172
#     218707
#     233007
#     249850
#     267002
#     288510
#     300760
#     314460
# 
# Disc length: 4402
# 
# Revision: 10
# Processed by: cddbd v1.5.2PL0 Copyright (c) Steve Scherf et al.
# Submitted via: fre:ac v1.0.17
# 
DISCID=f9113013
DTITLE=Rob Zombie - Past, Present and Future
DYEAR=2003
DGENRE=Heavy Metal
TTITLE0=White Zombie - Thunder Kiss '65
TTITLE1=White Zombie - Black Sunshine (feat. Iggy Pop)
TTITLE2=White Zombie - Feed the Gods
TTITLE3=White Zombie - More Human than Human
TTITLE4=White Zombie - Super Charger Heaven
TTITLE5=White Zombie - I'm Your Boogieman
TTITLE6=Hands of Death (Burn Baby Burn) (feat. Alice Cooper)
TTITLE7=The Great American Nightmare (feat. Howard Stern)
TTITLE8=Dragula
TTITLE9=Living Dead Girl
TTITLE10=Superbeast
TTITLE11=Feel So Numb
TTITLE12=Never Gonna Stop (The Red Red Kroovy)
TTITLE13=Demon Speeding
TTITLE14=Brickhouse 2003 (feat. Lionel Richie and Trina)
TTITLE15=Pussy Liquor
TTITLE16=Blitzkrieg Bop
TTITLE17=Two-Lane Blacktop
TTITLE18=Girl on Fire
EXTD=YEAR: 2003
EXTT0=
EXTT1=
EXTT2=
EXTT3=
EXTT4=
EXTT5=
EXTT6=
EXTT7=
EXTT8=
EXTT9=
EXTT10=
EXTT11=
EXTT12=
EXTT13=
EXTT14=
EXTT15=
EXTT16=
EXTT17=
EXTT18=
PLAYORDER=
